<svg width="25" height="25" fill="none" xmlns="http://www.w3.org/2000/svg"><g clip-path="url(#clip0_105:295)" fill="#FADA80"><path d="M19.018 0c-1.598 0-3.1.623-4.23 1.752l-4.659 4.659c.357-.05.712-.104 1.076-.104 1.004 0 1.987.195 2.89.557l2.902-2.902a2.84 2.84 0 012.02-.837 2.86 2.86 0 012.858 2.857 2.84 2.84 0 01-.837 2.02l-5.223 5.223c-1.08 1.08-2.96 1.08-4.04.001l-2.209 2.211a5.944 5.944 0 004.229 1.75c1.597 0 3.1-.622 4.23-1.752l5.223-5.223A5.943 5.943 0 0025 5.982 5.989 5.989 0 0019.018 0z"/><path d="M10.877 18.164l-2.875 2.874a2.84 2.84 0 01-2.02.837 2.86 2.86 0 01-2.857-2.857c0-.763.298-1.48.837-2.02l5.223-5.224c1.08-1.078 2.96-1.08 4.04 0l2.209-2.211c-2.26-2.257-6.199-2.258-8.458.002l-5.224 5.223A5.943 5.943 0 000 19.018 5.989 5.989 0 005.982 25c1.598 0 3.1-.623 4.23-1.753l4.597-4.596c-.336.045-.67.099-1.014.099a7.53 7.53 0 01-2.918-.586z"/></g><defs><clipPath id="clip0_105:295"><path fill="#fff" d="M0 0h25v25H0z"/></clipPath></defs></svg>