<svg width="875" height="364" fill="none" xmlns="http://www.w3.org/2000/svg"><path d="M62.721 315.95l-20.062-1.339 6.687 30.122 22.738-9.371-9.363-19.412z" fill="#FFB9B9"/><path d="M246.631 259.723l-46.813-45.518-26.751 20.751-52.832 63.591 6.019 9.371 64.2-43.51 43.47 56.897 41.463-20.75-28.756-40.832z" fill="#E83544"/><path opacity=".1" d="M246.631 259.723l-46.813-45.518-26.751 20.751-52.832 63.591 6.019 9.371 64.2-43.51 43.47 56.897 41.463-20.75-28.756-40.832z" fill="#040000"/><path d="M250.643 289.845l-6.019 4.685-48.819-16.734-11.369-4.686-22.738 4.686s0-18.743 21.4-18.073l22.069 5.355 26.082 2.008 19.394 22.759z" fill="#FFB9B9"/><path d="M294.113 339.379L279.4 348.75h-17.388l-80.92-30.122-118.37 21.42-3.345-25.437 108.34-47.525 94.964 31.461 31.432 40.832z" fill="#F6404F"/><path d="M199.149 220.23l-10.032 2.008-2.186-2.553a13.537 13.537 0 01-1.826-14.851l28.088-36.816s8.025-18.073 20.731-10.71c12.707 7.363-10.7 19.412-10.7 19.412l-14.044 22.09 1.338 11.379-11.369 10.041z" fill="#FFB9B9"/><path d="M262.681 176.72c14.404 0 26.081-11.688 26.081-26.105 0-14.418-11.677-26.106-26.081-26.106-14.405 0-26.082 11.688-26.082 26.106 0 14.417 11.677 26.105 26.082 26.105z" fill="#FFB9B9"/><path d="M250.978 169.692l12.037 28.783 28.757-12.049s-9.363-22.759-9.363-23.428c0-.669-31.431 6.694-31.431 6.694z" fill="#FFB9B9"/><path d="M330.361 255.243a150.12 150.12 0 01-7.35 46.395l-1.953 6.011-9.362 42.84-10.032 2.677-7.356-9.371-14.713-10.71-10.7-17.404-9.175-15.302-2.863-4.779-10.031-50.203-38.12-21.42L196 221.968l2.675-7.363 11.369-15.395 11.369-1.339 3.344-2.678 2.675 1.339 10.7-6.024 3.344 1.339 19.554 1.82 11.878-2.49 17.08-9.177 6.995 1.145 24.075 20.081a149.977 149.977 0 019.303 52.017z" fill="#FADA80"/><path d="M48.817 326.315s5.99-10.161 3.46-11.347c-2.53-1.187-13.275-5.916-13.275-5.916l-15.756-5.226S.51 270.004.01 299.416c-.5 29.411 16.554 36.481 16.554 36.481s15.21 32.763 23.826 27.539c8.615-5.225 17.237-22.959 17.237-22.959s-15.537-8.36-8.811-14.162z" fill="#2F2E41"/><path opacity=".1" d="M322.869 249.013l-25.413 16.734-37.931 34.232-2.863-4.78-8.025-40.162h2.006l20.732-38.154 51.494 32.13z" fill="#3F3D56"/><path d="M271.375 212.867l-20.732 38.154h-7.356l-4.681 13.387-10.7 2.678 28.756 31.461 40.794-36.816 25.413-16.735-51.494-32.129z" fill="#FADA80"/><path d="M242.395 131.204l-2.826 1.088a3.94 3.94 0 01-1.67-2.563 3.94 3.94 0 01.661-2.987l-5.222-.245a39.444 39.444 0 0112.505-10.871 39.401 39.401 0 0146.364 6.122c.238-.82 2.83.775 3.888 2.392.355-1.334 2.786 5.113 3.645 9.67.398-1.517 1.928.933.588 3.283.849-.124 1.232 2.051.575 3.263.929-.437.773 2.159-.235 3.894 1.326-.118-10.456 18.185-15.227 28.882-1.385-6.371-2.942-13.079-7.409-17.824-.759-.807-1.591-1.541-2.421-2.275l-4.489-3.966c-5.22-4.612-9.969-10.305-16.923-12.029-4.78-1.184-7.802-1.452-5.197-6.842-2.353.983-4.551 2.445-6.925 3.357.032-.753.364-1.596.318-2.349z" fill="#2F2E41"/><path d="M275.722 158.312a4.683 4.683 0 004.681-4.685 4.684 4.684 0 00-4.681-4.686 4.683 4.683 0 00-4.681 4.686 4.682 4.682 0 004.681 4.685z" fill="#FFB9B9"/><path d="M831.382 4.338H630.059V0h-91.288v4.338H336.618c-1.788 0-3.559.368-5.211 1.084a13.58 13.58 0 00-4.418 3.086 14.282 14.282 0 00-2.952 4.618A14.787 14.787 0 00323 18.574v288.19c0 1.869.352 3.72 1.037 5.448a14.282 14.282 0 002.952 4.618 13.573 13.573 0 004.418 3.086 13.096 13.096 0 005.211 1.084h494.764c3.612 0 7.076-1.5 9.629-4.17 2.554-2.67 3.989-6.291 3.989-10.066V18.574c0-1.87-.352-3.72-1.037-5.448a14.282 14.282 0 00-2.952-4.618 13.58 13.58 0 00-4.418-3.086 13.105 13.105 0 00-5.211-1.084z" fill="#3F3D56"/><path d="M827 30H341v286h486V30z" fill="#53D0EC"/><path d="M570.705 21.693a5.204 5.204 0 005.202-5.206 5.204 5.204 0 00-5.202-5.206 5.204 5.204 0 00-5.201 5.206 5.204 5.204 0 005.201 5.206z" fill="#6C63FF"/><path opacity=".1" d="M688 316H341V30l347 286z" fill="#2748A0"/><path d="M417 294c25.957 0 47-21.714 47-48.5S442.957 197 417 197s-47 21.714-47 48.5 21.043 48.5 47 48.5z" fill="#F2F2F2"/><path d="M427.5 282c-11.57 0-22.881-3.548-32.501-10.196-9.62-6.648-17.118-16.097-21.546-27.152-4.428-11.055-5.586-23.219-3.329-34.955 2.257-11.736 7.829-22.516 16.01-30.977 8.182-8.461 18.605-14.223 29.953-16.557 11.348-2.335 23.111-1.137 33.8 3.442 10.689 4.579 19.826 12.334 26.254 22.283 6.428 9.949 9.859 21.646 9.859 33.612-.018 16.04-6.187 31.418-17.154 42.76-10.967 11.342-25.836 17.722-41.346 17.74zm0-120.209c-11.419 0-22.581 3.502-32.076 10.063-9.495 6.561-16.895 15.886-21.264 26.796a61.606 61.606 0 00-3.286 34.499c2.228 11.582 7.727 22.221 15.801 30.572 8.074 8.35 18.362 14.037 29.561 16.341 11.2 2.304 22.809 1.121 33.358-3.398 10.55-4.519 19.567-12.172 25.911-21.991 6.344-9.819 9.73-21.364 9.73-33.173-.017-15.83-6.105-31.007-16.929-42.201-10.824-11.194-25.499-17.49-40.806-17.508zm308.913 22.144h-47.374v9.908h47.374v-9.908zm57.273-77.142h-161.92v4.246h161.92v-4.246zm0 13.447h-161.92v4.246h161.92v-4.246zm0 13.446h-161.92v4.247h161.92v-4.247zm0 13.447h-161.92v4.246h161.92v-4.246zm0 13.447h-161.92v4.246h161.92v-4.246z" fill="#3F3D56"/><path d="M793.686 35.312h-19.798V55.13h19.798V35.312z" fill="#F2F2F2"/><path d="M802.878 64.33h-24.04V40.265h24.04V64.33zm-22.995-1.047h21.95v-21.97h-21.95v21.97zm78.862 247.001h-47.412v-3.575a.737.737 0 00-.198-.501.684.684 0 00-.22-.154.643.643 0 00-.259-.054h-16.255a.674.674 0 00-.479.208.738.738 0 00-.199.501v3.575h-10.159v-3.575a.738.738 0 00-.199-.501.67.67 0 00-.479-.208h-16.255a.643.643 0 00-.259.054.684.684 0 00-.367.384.737.737 0 00-.051.271v3.575h-10.16v-3.575a.737.737 0 00-.198-.501.684.684 0 00-.22-.154.643.643 0 00-.259-.054h-16.255a.651.651 0 00-.479.208.738.738 0 00-.199.501v3.575h-10.159v-3.575a.738.738 0 00-.199-.501.67.67 0 00-.478-.208h-16.256a.643.643 0 00-.259.054.684.684 0 00-.367.384.737.737 0 00-.051.271v3.575h-10.16v-3.575a.737.737 0 00-.198-.501.684.684 0 00-.22-.154.643.643 0 00-.259-.054h-16.255a.651.651 0 00-.479.208.738.738 0 00-.199.501v3.575h-10.159v-3.575a.738.738 0 00-.199-.501.67.67 0 00-.478-.208h-16.256a.643.643 0 00-.259.054.684.684 0 00-.367.384.737.737 0 00-.051.271v3.575h-10.16v-3.575a.737.737 0 00-.198-.501.684.684 0 00-.22-.154.643.643 0 00-.259-.054H516.706a.651.651 0 00-.479.208.738.738 0 00-.199.501v3.575h-10.159v-3.575a.738.738 0 00-.199-.501.67.67 0 00-.479-.208h-16.255a.643.643 0 00-.259.054.684.684 0 00-.367.384.737.737 0 00-.051.271v3.575h-10.16v-3.575a.737.737 0 00-.198-.501.684.684 0 00-.22-.154.643.643 0 00-.259-.054h-16.255a.651.651 0 00-.479.208.738.738 0 00-.199.501v3.575H450.33v-3.575a.738.738 0 00-.199-.501.67.67 0 00-.479-.208h-16.255a.643.643 0 00-.259.054.684.684 0 00-.367.384.737.737 0 00-.051.271v3.575h-10.16v-3.575a.737.737 0 00-.198-.501.684.684 0 00-.22-.154.643.643 0 00-.259-.054h-16.255a.651.651 0 00-.479.208.738.738 0 00-.199.501v3.575h-10.159v-3.575a.738.738 0 00-.199-.501.651.651 0 00-.479-.208h-16.255a.643.643 0 00-.259.054.684.684 0 00-.367.384.737.737 0 00-.051.271v3.575h-10.16v-3.575a.737.737 0 00-.198-.501.684.684 0 00-.22-.154.643.643 0 00-.259-.054h-16.255a.651.651 0 00-.479.208.738.738 0 00-.199.501v3.575h-31.156c-4.311 0-8.445 1.792-11.494 4.982-3.048 3.191-4.761 7.518-4.761 12.03v7.692c0 4.512 1.713 8.839 4.761 12.029 3.049 3.191 7.183 4.983 11.494 4.983h540.49c4.311 0 8.445-1.792 11.494-4.983 3.048-3.19 4.761-7.517 4.761-12.029v-7.692c0-4.512-1.713-8.839-4.761-12.03-3.049-3.19-7.183-4.982-11.494-4.982z" fill="#3F3D56"/></svg>