<svg width="100" height="45" fill="none" xmlns="http://www.w3.org/2000/svg"><g clip-path="url(#clip0)"><path d="M100 24.929H0v19.943h100V24.929z" fill="#FADA80"/><path d="M70.81 31.371h2.198l-4.575 10.547h-.642l-3.076-7.223-3.02 7.223h-.665l-4.62-10.547h2.198l2.715 6.288 2.637-6.288h1.521l2.625 6.288 2.705-6.288zm12.024 5.364h-7.29c.052.992.383 1.78.991 2.366.616.586 1.409.88 2.378.88 1.352 0 2.599-.422 3.74-1.263v2.006a6.825 6.825 0 01-1.881.901c-.616.18-1.341.27-2.175.27-1.142 0-2.066-.236-2.772-.71a5.223 5.223 0 01-1.701-1.904c-.421-.803-.631-1.731-.631-2.783 0-1.577.447-2.858 1.34-3.842.895-.992 2.055-1.487 3.482-1.487 1.375 0 2.472.48 3.29 1.442.82.961 1.229 2.25 1.229 3.865v.259zm-7.246-1.228h5.218c-.053-.82-.297-1.45-.733-1.893-.435-.444-1.021-.665-1.758-.665-.736 0-1.34.221-1.814.665-.466.443-.77 1.074-.913 1.893zm9.387-9.51h2.05v6.118c.887-.646 1.834-.97 2.84-.97 1.315 0 2.389.497 3.223 1.488.834.992 1.25 2.265 1.25 3.82 0 1.668-.5 2.997-1.498 3.99-.992.983-2.321 1.475-3.99 1.475-.668 0-1.374-.071-2.117-.214-.737-.143-1.323-.323-1.758-.54V25.995zm2.05 8.079v5.611c.7.21 1.417.316 2.153.316.909 0 1.649-.323 2.22-.97.578-.645.867-1.476.867-2.49 0-1.029-.27-1.867-.811-2.512-.533-.646-1.232-.97-2.096-.97-.766 0-1.544.339-2.333 1.015z" fill="#3F3D56"/><path d="M10.194 11.478h3.966v23.167c0 2.93.97 4.395 2.907 4.395.857 0 1.555-.368 2.096-1.104.541-.736.811-1.773.811-3.11V11.478h3.967v22.897c0 2.704-.684 4.77-2.051 6.197-1.367 1.428-2.975 2.141-4.823 2.141-1.968 0-3.605-.743-4.912-2.23-1.308-1.488-1.961-3.419-1.961-5.792V11.477zm18.975 30.83v-30.83h3.223l6.828 19.02h.09v-19.02h3.651v30.83H39.74l-6.83-19.201h-.09v19.2h-3.65zm19.11 0v-30.83h3.967v30.83H48.28z" fill="#E83544"/></g><defs><clipPath id="clip0"><path fill="#fff" d="M0 0h100v44.872H0z"/></clipPath></defs></svg>